<svg width="205" height="58" viewBox="0 0 205 58" fill="none" xmlns="http://www.w3.org/2000/svg">
<path d="M24.048 31.784H14.976V41.144H13.248V31.784H4.176V30.104H13.248V20.744H14.976V30.104H24.048V31.784Z" fill="#FF0000"/>
<path d="M36.4748 15.704V14.36H49.6268V15.704L46.9868 16.04C46.4748 16.104 46.1708 16.248 46.0748 16.472C45.9788 16.664 45.9308 17.304 45.9308 18.392V37.688C45.9308 39.512 45.6268 41.176 45.0188 42.68C44.4108 44.152 43.4188 45.32 42.0428 46.184C40.6668 47.048 38.8268 47.48 36.5228 47.48C35.3388 47.48 34.1708 47.288 33.0188 46.904C31.8988 46.488 30.9228 45.752 30.0908 44.696C29.2908 43.64 28.7628 42.136 28.5068 40.184L31.8188 39.224C31.9148 40.984 32.1708 42.344 32.5868 43.304C33.0028 44.232 33.5308 44.888 34.1708 45.272C34.8108 45.624 35.4988 45.8 36.2348 45.8C36.9708 45.8 37.6268 45.608 38.2028 45.224C38.8108 44.84 39.2908 44.136 39.6428 43.112C39.9948 42.088 40.1708 40.6 40.1708 38.648V18.392C40.1708 17.304 40.1228 16.664 40.0268 16.472C39.9308 16.248 39.6268 16.104 39.1148 16.04L36.4748 15.704ZM74.3081 34.328V35.288C74.3081 38.968 73.3481 41.928 71.4281 44.168C69.5401 46.376 66.8361 47.48 63.3161 47.48C59.7961 47.48 57.0761 46.376 55.1561 44.168C53.2681 41.928 52.3241 38.968 52.3241 35.288V34.328C52.3241 30.648 53.2681 27.704 55.1561 25.496C57.0761 23.288 59.7961 22.184 63.3161 22.184C66.8361 22.184 69.5401 23.288 71.4281 25.496C73.3481 27.704 74.3081 30.648 74.3081 34.328ZM68.4041 33.368C68.4041 29.944 67.9721 27.512 67.1081 26.072C66.2441 24.6 64.9801 23.864 63.3161 23.864C61.6841 23.864 60.4201 24.6 59.5241 26.072C58.6601 27.512 58.2281 29.944 58.2281 33.368V36.248C58.2281 39.64 58.6601 42.088 59.5241 43.592C60.4201 45.064 61.6841 45.8 63.3161 45.8C64.9801 45.8 66.2441 45.064 67.1081 43.592C67.9721 42.088 68.4041 39.64 68.4041 36.248V33.368ZM89.6378 49.4C88.9018 51.416 88.0858 53.032 87.1898 54.248C86.3258 55.464 85.2538 56.344 83.9738 56.888C82.6938 57.432 81.0938 57.704 79.1738 57.704V52.424C81.1258 52.424 82.6938 52.28 83.8778 51.992C85.0938 51.736 86.0218 51.304 86.6618 50.696C87.3338 50.12 87.8298 49.368 88.1498 48.44L88.6298 47H86.1338L79.3178 26.696C79.0938 25.96 78.9018 25.448 78.7418 25.16C78.6138 24.84 78.4538 24.632 78.2617 24.536C78.1018 24.44 77.8458 24.376 77.4938 24.344L74.8537 24.008V22.664H87.8138V24.008L85.1738 24.344C84.7898 24.376 84.5498 24.504 84.4538 24.728C84.3898 24.92 84.5338 25.576 84.8858 26.696L90.1178 42.536L95.5418 26.504C95.8938 25.48 96.0378 24.888 95.9738 24.728C95.9418 24.536 95.6858 24.408 95.2058 24.344L92.5658 24.008V22.664H101.734V24.008L99.0938 24.344C98.6138 24.408 98.2938 24.536 98.1338 24.728C97.9738 24.92 97.7178 25.512 97.3658 26.504L89.6378 49.4ZM130.38 45.656V47H117.468V45.656L120.108 45.32C120.62 45.256 120.924 45.128 121.02 44.936C121.116 44.712 121.164 44.056 121.164 42.968V30.872C121.164 28.664 120.86 27.064 120.252 26.072C119.644 25.048 118.732 24.536 117.516 24.536C117.004 24.536 116.396 24.68 115.692 24.968C114.988 25.224 114.284 25.704 113.58 26.408C112.908 27.112 112.316 28.152 111.804 29.528V42.968C111.804 44.056 111.852 44.712 111.948 44.936C112.044 45.128 112.348 45.256 112.86 45.32L115.5 45.656V47H102.588V45.656L105.228 45.32C105.74 45.256 106.044 45.128 106.14 44.936C106.236 44.712 106.284 44.056 106.284 42.968V26.696C106.284 25.608 106.236 24.968 106.14 24.776C106.044 24.552 105.74 24.408 105.228 24.344L102.588 24.008V22.664H111.516V26.888C112.412 25.256 113.564 24.072 114.972 23.336C116.38 22.568 117.804 22.184 119.244 22.184C120.972 22.184 122.428 22.632 123.612 23.528C124.828 24.392 125.692 25.64 126.204 27.272C127.068 25.48 128.236 24.184 129.708 23.384C131.18 22.584 132.652 22.184 134.124 22.184C136.396 22.184 138.204 22.936 139.548 24.44C140.892 25.944 141.564 28.072 141.564 30.824V42.968C141.564 44.056 141.612 44.712 141.708 44.936C141.804 45.128 142.108 45.256 142.62 45.32L145.26 45.656V47H132.348V45.656L134.988 45.32C135.5 45.256 135.804 45.128 135.9 44.936C135.996 44.712 136.044 44.056 136.044 42.968V30.872C136.044 28.664 135.74 27.064 135.132 26.072C134.524 25.048 133.612 24.536 132.396 24.536C131.884 24.536 131.276 24.68 130.572 24.968C129.868 25.224 129.164 25.72 128.46 26.456C127.756 27.192 127.148 28.264 126.636 29.672C126.668 29.832 126.684 30.024 126.684 30.248C126.684 30.44 126.684 30.632 126.684 30.824V42.968C126.684 44.056 126.732 44.712 126.828 44.936C126.924 45.128 127.228 45.256 127.74 45.32L130.38 45.656ZM168.533 41.288C167.957 43.528 166.885 45.128 165.317 46.088C163.749 47.016 161.925 47.48 159.845 47.48C156.005 47.48 153.125 46.376 151.205 44.168C149.285 41.928 148.325 38.968 148.325 35.288V34.328C148.325 30.648 149.221 27.704 151.013 25.496C152.837 23.288 155.461 22.184 158.885 22.184C160.805 22.184 162.501 22.568 163.973 23.336C165.477 24.072 166.645 25.144 167.477 26.552C168.341 27.96 168.773 29.672 168.773 31.688C168.773 32.168 168.741 32.68 168.677 33.224C168.645 33.768 168.565 34.312 168.437 34.856H154.229V36.248C154.229 39.64 154.709 42.088 155.669 43.592C156.629 45.064 158.181 45.8 160.325 45.8C161.701 45.8 162.869 45.4 163.829 44.6C164.789 43.768 165.333 42.376 165.461 40.424L168.533 41.288ZM158.885 23.864C157.317 23.864 156.149 24.584 155.381 26.024C154.613 27.464 154.229 29.848 154.229 33.176H162.917C163.045 32.536 163.125 31.944 163.157 31.4C163.221 30.824 163.253 30.296 163.253 29.816C163.253 27.768 162.853 26.264 162.053 25.304C161.253 24.344 160.197 23.864 158.885 23.864ZM198.5 45.656V47H189.572V43.016C188.676 44.488 187.668 45.608 186.548 46.376C185.46 47.112 184.164 47.48 182.66 47.48C179.972 47.48 177.828 46.424 176.228 44.312C174.66 42.168 173.876 39.176 173.876 35.336V34.376C173.876 30.664 174.788 27.704 176.612 25.496C178.468 23.288 180.996 22.184 184.196 22.184C186.116 22.184 187.812 22.664 189.284 23.624V15.512C189.284 14.424 189.236 13.784 189.14 13.592C189.044 13.368 188.74 13.224 188.228 13.16L185.588 12.824V11.48H194.804V42.968C194.804 44.056 194.852 44.712 194.948 44.936C195.044 45.128 195.348 45.256 195.859 45.32L198.5 45.656ZM179.78 36.776C179.78 39.752 180.148 41.928 180.884 43.304C181.62 44.68 182.628 45.368 183.908 45.368C184.708 45.368 185.54 45.048 186.404 44.408C187.3 43.736 188.26 42.392 189.284 40.376V25.88C188.068 24.664 186.58 24.056 184.82 24.056C183.06 24.056 181.78 24.856 180.98 26.456C180.18 28.024 179.78 30.184 179.78 32.936V36.776Z" fill="#0000FF"/>
</svg>
